# xmcd CD database file
#
# Track frame offsets:
#	150
#	24155
#	37575
#	57907
#	84657
#	104680
#	132892
#	158120
#	173600
#	184915
#	198877
#	214837
#	237747
#	258620
#	283115
#	301100
#	322335
#
# Disc length: 4510 seconds
#
# Revision: 9
# Processed by: cddbd v1.5.1PL0 Copyright (c) Steve Scherf et al.
# Submitted via: CDex 1.60beta1-cs1
#
DISCID=ef119c11
DTITLE=Various Artist - Reference Highlights CD1
DYEAR=1991
DGENRE=Jazz
TTITLE0=B. Auger, P. York, C. Farlowe - Crocodile or I Don't...
TTITLE1=Sammy Vomáĉka - Alabama Jubilee
TTITLE2=Charly Antolini - Rotation
TTITLE3=Brown, Alexander, Griffin, Drew - Summerwind
TTITLE4=Lenny Mac Dowell - Locomotive Breath
TTITLE5=Wolfhound, Anne Haigis - Truth
TTITLE6=Chris Barber - United Blues
TTITLE7=Ichu - Sacsayhuamanpi
TTITLE8=Ray Brown, Lorindo Almeida - Air on a "G"  String
TTITLE9=Bill Ramsey, Toots Thielmans - My Lean Baby
TTITLE10=Monty Alexander - Mona Lisa
TTITLE11=Juraj Galan, Norbert Dömling - Borsalino
TTITLE12=Silvia Droste - Easy Living
TTITLE13=Papa Bue - Stardust
TTITLE14=Mr. Acker Bilk - Dixie
TTITLE15=Ray Foxley - The Entertainer
TTITLE16=Blues and Boogie Explosion - KC Jump
EXTD=YEAR: 1991
EXTT0=
EXTT1=
EXTT2=
EXTT3=
EXTT4=
EXTT5=
EXTT6=
EXTT7=
EXTT8=
EXTT9=
EXTT10=
EXTT11=
EXTT12=
EXTT13=
EXTT14=
EXTT15=
EXTT16=
PLAYORDER=
